<svg xmlns="http://www.w3.org/2000/svg" xmlns:xlink="http://www.w3.org/1999/xlink" width="300" zoomAndPan="magnify" viewBox="0 0 224.87999 225" height="300" preserveAspectRatio="xMidYMid meet" version="1.2"><defs><clipPath id="63f084d175"><path d="M 10.222656 60.066406 L 215.78125 60.066406 L 215.78125 213.484375 L 10.222656 213.484375 Z M 10.222656 60.066406 "/></clipPath><clipPath id="2b6eb12296"><path d="M 29.757812 60.066406 L 196.214844 60.066406 C 201.394531 60.066406 206.363281 62.125 210.027344 65.789062 C 213.691406 69.449219 215.75 74.417969 215.75 79.601562 L 215.75 193.953125 C 215.75 199.132812 213.691406 204.101562 210.027344 207.765625 C 206.363281 211.425781 201.394531 213.484375 196.214844 213.484375 L 29.757812 213.484375 C 24.574219 213.484375 19.609375 211.425781 15.945312 207.765625 C 12.28125 204.101562 10.222656 199.132812 10.222656 193.953125 L 10.222656 79.601562 C 10.222656 74.417969 12.28125 69.449219 15.945312 65.789062 C 19.609375 62.125 24.574219 60.066406 29.757812 60.066406 Z M 29.757812 60.066406 "/></clipPath><clipPath id="ef42f4641c"><path d="M 10.136719 10.363281 L 212 10.363281 L 212 136.285156 L 10.136719 136.285156 Z M 10.136719 10.363281 "/></clipPath><clipPath id="73a863e38b"><path d="M 203.015625 85.199219 L 47.851562 134.714844 C 39.171875 137.484375 29.691406 135.941406 22.335938 130.570312 C 14.980469 125.195312 10.632812 116.632812 10.632812 107.523438 L 10.632812 39.128906 C 10.632812 30.019531 14.980469 21.457031 22.335938 16.082031 C 29.691406 10.707031 39.171875 9.167969 47.851562 11.9375 L 203.015625 61.449219 C 208.183594 63.097656 211.691406 67.898438 211.691406 73.324219 C 211.691406 78.75 208.183594 83.550781 203.015625 85.199219 Z M 203.015625 85.199219 "/></clipPath></defs><g id="69eabfebbd"><g clip-rule="nonzero" clip-path="url(#63f084d175)"><g clip-rule="nonzero" clip-path="url(#2b6eb12296)"><path style=" stroke:none;fill-rule:nonzero;fill:#ffffff;fill-opacity:1;" d="M 10.222656 60.066406 L 215.78125 60.066406 L 215.78125 213.484375 L 10.222656 213.484375 Z M 10.222656 60.066406 "/></g></g><g clip-rule="nonzero" clip-path="url(#ef42f4641c)"><g clip-rule="nonzero" clip-path="url(#73a863e38b)"><path style=" stroke:none;fill-rule:nonzero;fill:#ffffff;fill-opacity:1;" d="M 240.234375 0.0585938 L 240.234375 146.589844 L 10.136719 146.589844 L 10.136719 0.0585938 Z M 240.234375 0.0585938 "/></g></g></g></svg>