<svg xmlns="http://www.w3.org/2000/svg" width="600" viewBox="0 0 450 225" height="300" preserveAspectRatio="xMidYMid meet">
  <g id="a991402e61">
    <g style="fill:#14220d;fill-opacity:1;"><g transform="translate(0, 169.079481)"><path style="stroke:none" d="M 71.65625 -87.144531 L 50.222656 -87.144531 L 37.707031 -20.496094 L 25.972656 -87.144531 L 4.378906 -87.144531 L 17.679688 -19.085938 C 20.339844 -5.320312 27.222656 1.722656 38.019531 1.722656 C 42.867188 1.722656 47.875 -0.15625 51.160156 -3.285156 C 55.070312 -6.726562 57.105469 -11.265625 58.828125 -20.496094 Z M 71.65625 -87.144531 "/></g></g>
    <g style="fill:#14220d;fill-opacity:1;"><g transform="translate(76.18864, 169.079481)"><path style="stroke:none" d="M 29.101562 -119.6875 L 7.980469 -119.6875 L 7.980469 0 L 29.101562 0 Z M 29.101562 -119.6875 "/>
    </g></g>
    <g style="fill:#14220d;fill-opacity:1;"><g transform="translate(113.266063, 169.079481)"><path style="stroke:none" d="M 29.101562 -87.144531 L 7.980469 -87.144531 L 7.980469 0 L 29.101562 0 Z M 30.195312 -109.828125 C 30.195312 -116.246094 25.03125 -121.40625 18.617188 -121.40625 C 12.203125 -121.40625 7.039062 -116.246094 7.039062 -109.828125 C 7.039062 -103.414062 12.203125 -98.253906 18.617188 -98.253906 C 25.03125 -98.253906 30.195312 -103.414062 30.195312 -109.828125 Z M 30.195312 -109.828125 "/></g></g>
    <g style="fill:#14220d;fill-opacity:1;"><g transform="translate(150.343487, 169.079481)"><path style="stroke:none" d="M 71.96875 0 L 71.96875 -51.316406 C 71.96875 -64.929688 70.246094 -70.875 63.988281 -77.914062 C 57.886719 -84.953125 49.59375 -88.707031 40.207031 -88.707031 C 25.816406 -88.707031 13.296875 -79.476562 9.542969 -66.023438 C 8.605469 -62.425781 7.980469 -57.105469 7.980469 -50.847656 L 7.980469 0 L 29.101562 0 L 29.101562 -55.695312 C 29.101562 -60.859375 29.414062 -62.582031 30.820312 -64.769531 C 32.542969 -67.585938 36.296875 -69.464844 40.050781 -69.464844 C 45.058594 -69.464844 49.4375 -65.867188 50.378906 -61.015625 C 50.691406 -59.140625 50.847656 -57.261719 50.847656 -53.507812 L 50.847656 0 Z M 71.96875 0 "/></g></g>
    <g style="fill:#14220d;fill-opacity:1;"><g transform="translate(230.286799, 169.079481)"><path style="stroke:none" d="M 29.101562 -54.132812 L 29.101562 -87.144531 L 7.980469 -87.144531 L 7.980469 0 L 29.101562 0 L 29.101562 -34.574219 L 38.019531 -34.574219 C 42.242188 -34.574219 45.683594 -33.324219 47.875 -30.820312 C 50.222656 -28.316406 50.691406 -26.285156 50.691406 -19.398438 L 50.691406 0 L 71.8125 0 L 71.8125 -20.652344 C 71.8125 -32.074219 69.464844 -38.800781 61.640625 -44.589844 C 67.429688 -48.8125 71.96875 -53.507812 71.96875 -67.273438 L 71.96875 -87.144531 L 50.847656 -87.144531 L 50.847656 -67.585938 C 50.847656 -58.667969 46.464844 -54.289062 38.019531 -54.132812 Z M 29.101562 -54.132812 "/></g></g>
    <g style="fill:#14220d;fill-opacity:1;"><g transform="translate(309.291443, 169.079481)"><path style="stroke:none" d="M 70.714844 -34.574219 L 70.714844 -57.730469 C 70.714844 -63.675781 68.683594 -69.621094 65.085938 -74.941406 C 59.296875 -83.546875 49.59375 -88.550781 39.113281 -88.550781 C 24.5625 -88.550781 11.421875 -78.539062 8.292969 -64.929688 C 7.195312 -60.546875 7.039062 -58.828125 7.039062 -50.378906 L 7.039062 -32.855469 C 7.039062 -18.460938 12.515625 -8.605469 23.625 -2.347656 C 28.316406 0.3125 33.324219 1.566406 38.644531 1.566406 C 48.34375 1.566406 55.695312 -1.722656 62.894531 -9.386719 L 47.71875 -22.214844 C 45.058594 -19.085938 42.554688 -17.679688 39.113281 -17.679688 C 35.046875 -17.679688 31.445312 -19.871094 29.570312 -23.3125 C 28.628906 -25.1875 28.316406 -26.753906 28.316406 -31.132812 L 28.316406 -34.574219 Z M 49.59375 -54.132812 L 28.316406 -54.132812 L 28.316406 -54.757812 C 28.316406 -59.140625 28.472656 -61.015625 29.257812 -62.894531 C 30.820312 -66.804688 34.574219 -69.464844 38.957031 -69.464844 C 43.335938 -69.464844 47.40625 -66.648438 48.8125 -62.582031 C 49.4375 -60.703125 49.59375 -59.296875 49.59375 -55.226562 Z M 49.59375 -54.132812 "/></g></g>
    <g style="fill:#14220d;fill-opacity:1;"><g transform="translate(385.792993, 169.079481)"><path style="stroke:none" d="M 29.101562 0 L 29.101562 -55.382812 C 29.101562 -63.363281 31.601562 -69.464844 39.894531 -69.464844 C 43.492188 -69.464844 46.308594 -67.902344 48.8125 -64.457031 L 64.144531 -77.601562 C 58.042969 -84.953125 49.910156 -88.707031 40.519531 -88.707031 C 26.441406 -88.707031 13.613281 -79.789062 10.011719 -67.273438 C 8.449219 -62.113281 7.980469 -57.730469 7.980469 -49.125 L 7.980469 0 Z M 29.101562 0 "/></g></g>
  </g>
</svg>